<svg width="553" height="431" viewBox="0 0 553 431" fill="none" xmlns="http://www.w3.org/2000/svg">
<path d="M284.159 398.22L491.188 282.235C492.681 281.432 493.937 280.23 494.826 278.754C495.715 277.278 496.204 275.581 496.242 273.843C496.28 272.104 495.866 270.387 495.043 268.87C494.219 267.354 493.017 266.094 491.562 265.222L290.864 141.16C289.329 140.217 287.581 139.708 285.795 139.683C284.009 139.658 282.249 140.118 280.689 141.017L61.6872 267.839C60.1971 268.67 58.9523 269.903 58.0848 271.407C57.2172 272.911 56.7592 274.629 56.7592 276.381C56.7592 278.132 57.2172 279.85 58.0848 281.354C58.9523 282.858 60.1971 284.091 61.6872 284.923L256.965 398.02C261.117 400.413 265.784 401.686 270.537 401.721C275.29 401.756 279.975 400.552 284.159 398.22V398.22Z" fill="#00275E"/>
<path d="M249.113 225.951C249.113 225.951 207.237 249.068 197.324 304.222C197.324 304.222 238.108 313.158 292.717 266.452" fill="#EB773A"/>
<path d="M248.587 232.984C248.587 232.984 230.725 249.554 225.693 261.248C220.661 272.942 214.094 290.055 214.094 290.055C214.094 290.055 245.546 292.828 275.118 274.115C304.689 255.401 276.5 220.404 248.587 232.984Z" fill="#FFAE46"/>
<path d="M266.339 227.166C265.26 229.039 246.859 239.761 243.417 255.229L249.417 250.526C249.417 250.526 239.214 265.308 234.887 273.814C234.887 273.814 259.772 263.564 258.998 264.179L251.961 269.697C251.961 269.697 270.887 269.282 283.758 257.388C296.629 245.494 278.933 224.75 278.933 224.75L266.339 227.166Z" fill="#FAD374"/>
<path d="M321.874 227.023C321.874 227.023 318.625 248.825 311.671 254.186C304.717 259.547 282.141 277.317 282.141 277.317L278.394 272.199C278.394 272.199 293.961 243.506 296.712 230.84C299.463 218.173 321.874 227.023 321.874 227.023Z" fill="#68E1FD"/>
<path opacity="0.61" d="M321.874 227.023C321.874 227.023 318.625 248.825 311.671 254.186C304.717 259.547 282.141 277.317 282.141 277.317L278.394 272.199C278.394 272.199 293.961 243.506 296.712 230.84C299.463 218.173 321.874 227.023 321.874 227.023Z" fill="#363636"/>
<path d="M299.394 196.343C299.394 196.343 278.214 193.684 271.274 199.202C264.334 204.721 241.744 222.334 241.744 222.334L245.491 227.452C245.491 227.452 276.417 219.717 288.956 220.418C301.496 221.118 299.394 196.343 299.394 196.343Z" fill="#68E1FD"/>
<path opacity="0.61" d="M299.394 196.343C299.394 196.343 278.214 193.684 271.274 199.202C264.334 204.721 241.744 222.334 241.744 222.334L245.491 227.452C245.491 227.452 276.417 219.717 288.956 220.418C301.496 221.118 299.394 196.343 299.394 196.343Z" fill="#363636"/>
<path d="M401.077 159.745C406.676 150.7 411.197 140.99 414.543 130.823C414.543 130.823 402.238 130.966 383.851 136.628C385.317 146.306 392.796 154.026 401.077 159.745Z" fill="#68E1FD"/>
<path d="M351.752 199.037C357.595 194.46 358.253 185.183 353.222 178.317C348.191 171.451 339.377 169.596 333.535 174.173C327.692 178.751 327.034 188.027 332.065 194.893C337.096 201.759 345.91 203.615 351.752 199.037Z" fill="#68E1FD"/>
<path d="M457.511 96.5982C457.511 96.5982 341.657 126.392 282.79 214.599C282.79 214.599 268.965 229.853 275.643 238.331C282.32 246.809 304.579 240.061 304.579 240.061C304.579 240.061 377.727 218.588 457.511 96.5982Z" fill="#68E1FD"/>
<path d="M282.79 214.599C282.79 214.599 268.191 212.769 263.435 216.529C258.68 220.289 243.085 232.47 243.085 232.47L245.67 236.001C245.67 236.001 266.988 230.668 275.615 231.154C284.242 231.64 282.79 214.599 282.79 214.599Z" fill="#68E1FD"/>
<path d="M300.376 238.603C300.376 238.603 298.136 253.628 293.339 257.374C288.542 261.119 272.988 273.314 272.988 273.314L270.417 269.826C270.417 269.826 281.145 250.054 283.039 241.319C284.933 232.584 300.376 238.603 300.376 238.603Z" fill="#68E1FD"/>
<path opacity="0.29" d="M282.79 214.599C282.79 214.599 268.191 212.769 263.435 216.529C258.68 220.289 243.085 232.47 243.085 232.47L245.67 236.001C245.67 236.001 266.988 230.668 275.615 231.154C284.242 231.64 282.79 214.599 282.79 214.599Z" fill="#363636"/>
<path opacity="0.29" d="M300.376 238.603C300.376 238.603 298.136 253.628 293.339 257.374C288.542 261.119 272.988 273.314 272.988 273.314L270.417 269.826C270.417 269.826 281.145 250.054 283.039 241.319C284.933 232.584 300.376 238.603 300.376 238.603Z" fill="#363636"/>
<path d="M401.229 118.085C401.229 118.085 400.828 138.343 421.566 145.849L409.538 159.973C409.538 159.973 383.492 144.834 387.529 124.948L401.229 118.085Z" fill="#68E1FD"/>
<path d="M326.837 165.049C326.837 165.049 327.072 199.36 358.012 209.124L335.035 225.364C335.035 225.364 301.855 213.456 308.007 182.933L326.837 165.049Z" fill="#68E1FD"/>
<path d="M382.762 160.102C384.819 158.49 385.223 155.459 383.665 153.332C382.106 151.205 379.175 150.787 377.118 152.399C375.061 154.01 374.657 157.041 376.216 159.168C377.774 161.296 380.705 161.713 382.762 160.102Z" fill="#68E1FD"/>
<path d="M365.793 185.412C371.18 181.234 372.272 173.33 368.232 167.759C364.191 162.188 356.548 161.059 351.161 165.237C345.773 169.416 344.681 177.319 348.722 182.89C352.762 188.461 360.405 189.59 365.793 185.412Z" fill="#68E1FD"/>
<path opacity="0.61" d="M401.229 118.085C401.229 118.085 400.828 138.343 421.566 145.849L409.538 159.973C409.538 159.973 383.492 144.834 387.529 124.948L401.229 118.085Z" fill="#606060"/>
<path opacity="0.61" d="M326.837 165.049C326.837 165.049 327.072 199.36 358.012 209.124L335.035 225.364C335.035 225.364 301.855 213.456 308.007 182.933L326.837 165.049Z" fill="#606060"/>
<path opacity="0.61" d="M382.762 160.102C384.819 158.49 385.223 155.459 383.665 153.332C382.106 151.205 379.175 150.787 377.118 152.399C375.061 154.01 374.657 157.041 376.216 159.168C377.774 161.296 380.705 161.713 382.762 160.102Z" fill="#606060"/>
<path opacity="0.61" d="M365.793 185.412C371.18 181.234 372.272 173.33 368.232 167.759C364.191 162.188 356.548 161.059 351.161 165.237C345.773 169.416 344.681 177.319 348.722 182.89C352.762 188.461 360.405 189.59 365.793 185.412Z" fill="#606060"/>
<path d="M423.46 248.281C423.093 248.281 422.741 248.432 422.482 248.7C422.223 248.968 422.077 249.332 422.077 249.711C422.077 250.09 422.223 250.454 422.482 250.722C422.741 250.99 423.093 251.141 423.46 251.141C423.826 251.141 424.178 250.99 424.437 250.722C424.697 250.454 424.842 250.09 424.842 249.711C424.842 249.332 424.697 248.968 424.437 248.7C424.178 248.432 423.826 248.281 423.46 248.281Z" fill="white"/>
<path d="M353.422 305.223V306.138C353.422 306.517 353.568 306.881 353.827 307.149C354.087 307.417 354.438 307.568 354.805 307.568C355.172 307.568 355.523 307.417 355.782 307.149C356.042 306.881 356.187 306.517 356.187 306.138V305.223C356.187 304.844 356.042 304.48 355.782 304.212C355.523 303.944 355.172 303.794 354.805 303.794C354.438 303.794 354.087 303.944 353.827 304.212C353.568 304.48 353.422 304.844 353.422 305.223Z" fill="white"/>
<path d="M256.592 327.983V328.898C256.592 329.277 256.738 329.641 256.997 329.909C257.256 330.177 257.608 330.327 257.975 330.327C258.341 330.327 258.693 330.177 258.952 329.909C259.211 329.641 259.357 329.277 259.357 328.898V327.983C259.357 327.604 259.211 327.24 258.952 326.972C258.693 326.704 258.341 326.553 257.975 326.553C257.608 326.553 257.256 326.704 256.997 326.972C256.738 327.24 256.592 327.604 256.592 327.983Z" fill="white"/>
<path d="M346.883 258.289C346.516 258.289 346.165 258.439 345.906 258.707C345.646 258.975 345.501 259.339 345.501 259.718C345.501 260.097 345.646 260.461 345.906 260.729C346.165 260.997 346.516 261.148 346.883 261.148C347.25 261.148 347.601 260.997 347.861 260.729C348.12 260.461 348.266 260.097 348.266 259.718C348.266 259.339 348.12 258.975 347.861 258.707C347.601 258.439 347.25 258.289 346.883 258.289Z" fill="white"/>
<path d="M181.398 255.529C181.031 255.529 180.68 255.68 180.42 255.948C180.161 256.216 180.015 256.58 180.015 256.959C180.015 257.338 180.161 257.702 180.42 257.97C180.68 258.238 181.031 258.389 181.398 258.389C181.765 258.389 182.116 258.238 182.375 257.97C182.635 257.702 182.78 257.338 182.78 256.959C182.78 256.58 182.635 256.216 182.375 255.948C182.116 255.68 181.765 255.529 181.398 255.529Z" fill="white"/>
<path d="M119.268 259.718V260.633C119.268 261.012 119.414 261.376 119.673 261.644C119.932 261.912 120.284 262.063 120.651 262.063C121.017 262.063 121.369 261.912 121.628 261.644C121.888 261.376 122.033 261.012 122.033 260.633V259.718C122.033 259.339 121.888 258.975 121.628 258.707C121.369 258.439 121.017 258.289 120.651 258.289C120.284 258.289 119.932 258.439 119.673 258.707C119.414 258.975 119.268 259.339 119.268 259.718Z" fill="white"/>
<path d="M148.826 304.709C148.459 304.709 148.108 304.859 147.849 305.127C147.589 305.395 147.444 305.759 147.444 306.138C147.444 306.517 147.589 306.881 147.849 307.149C148.108 307.417 148.459 307.568 148.826 307.568C149.193 307.568 149.544 307.417 149.804 307.149C150.063 306.881 150.209 306.517 150.209 306.138C150.209 305.759 150.063 305.395 149.804 305.127C149.544 304.859 149.193 304.709 148.826 304.709Z" fill="white"/>
<path d="M194.601 223.692C194.234 223.692 193.882 223.842 193.623 224.11C193.364 224.379 193.218 224.742 193.218 225.121C193.218 225.501 193.364 225.864 193.623 226.132C193.882 226.4 194.234 226.551 194.601 226.551C194.967 226.551 195.319 226.4 195.578 226.132C195.838 225.864 195.983 225.501 195.983 225.121C195.983 224.742 195.838 224.379 195.578 224.11C195.319 223.842 194.967 223.692 194.601 223.692Z" fill="white"/>
<path d="M262.371 178.187C262.004 178.187 261.653 178.337 261.393 178.606C261.134 178.874 260.988 179.237 260.988 179.616C260.988 179.996 261.134 180.359 261.393 180.627C261.653 180.895 262.004 181.046 262.371 181.046C262.738 181.046 263.089 180.895 263.348 180.627C263.608 180.359 263.753 179.996 263.753 179.616C263.753 179.237 263.608 178.874 263.348 178.606C263.089 178.337 262.738 178.187 262.371 178.187Z" fill="white"/>
<path d="M303.749 356.59C303.382 356.59 303.031 356.74 302.771 357.008C302.512 357.276 302.367 357.64 302.367 358.019C302.367 358.398 302.512 358.762 302.771 359.03C303.031 359.298 303.382 359.449 303.749 359.449C304.116 359.449 304.467 359.298 304.727 359.03C304.986 358.762 305.132 358.398 305.132 358.019C305.132 357.64 304.986 357.276 304.727 357.008C304.467 356.74 304.116 356.59 303.749 356.59Z" fill="white"/>
<path d="M395.284 276.23C386.395 276.23 386.367 290.527 395.284 290.527C404.202 290.527 404.202 276.23 395.284 276.23Z" fill="#FFAE46"/>
<path d="M147.07 268.039C138.181 268.039 138.153 282.335 147.07 282.335C155.988 282.335 155.974 268.039 147.07 268.039Z" fill="#FFAE46"/>
<path d="M279.583 362.065C278.287 360.725 276.529 359.972 274.696 359.972C272.863 359.972 271.105 360.725 269.809 362.065C268.538 363.425 267.816 365.235 267.79 367.126V368.041C267.81 369.933 268.533 371.745 269.809 373.102C271.105 374.442 272.863 375.195 274.696 375.195C276.529 375.195 278.287 374.442 279.583 373.102C280.854 371.742 281.576 369.932 281.601 368.041V367.126C281.581 365.234 280.859 363.422 279.583 362.065V362.065Z" fill="#00AEE1"/>
<path d="M153.112 170.81C169.757 170.81 183.25 156.857 183.25 139.644C183.25 122.432 169.757 108.478 153.112 108.478C136.467 108.478 122.973 122.432 122.973 139.644C122.973 156.857 136.467 170.81 153.112 170.81Z" fill="#68E1FD"/>
<path d="M177.624 122.503C180.803 121.596 184.036 120.899 187.301 120.416C188.941 120.158 190.593 119.996 192.25 119.93C193.971 119.83 195.696 119.935 197.393 120.244C198.375 120.416 199.314 120.785 200.158 121.331C200.667 121.677 201.101 122.13 201.43 122.66C201.776 123.238 201.976 123.897 202.011 124.576C202.023 125.698 201.772 126.807 201.278 127.807C200.887 128.657 200.424 129.47 199.896 130.237C197.799 133.021 195.375 135.523 192.679 137.686C187.504 141.946 182.007 145.77 176.241 149.123C170.536 152.533 164.662 155.63 158.642 158.401C152.62 161.218 146.438 163.653 140.13 165.692C136.952 166.741 133.721 167.615 130.453 168.308C127.103 169.068 123.701 169.551 120.278 169.752C118.524 169.845 116.765 169.773 115.024 169.538C113.162 169.319 111.348 168.778 109.66 167.936C108.732 167.475 107.883 166.862 107.144 166.121C106.314 165.273 105.718 164.212 105.416 163.047C105.149 161.935 105.149 160.771 105.416 159.659C105.643 158.692 105.992 157.759 106.453 156.885C108.275 153.843 110.617 151.169 113.365 148.994C115.903 146.82 118.618 144.878 121.48 143.19C119.109 145.455 116.848 147.84 114.706 150.338C112.564 152.7 110.787 155.391 109.439 158.315C108.896 159.43 108.768 160.712 109.079 161.918C109.258 162.365 109.543 162.759 109.909 163.061C110.382 163.442 110.903 163.755 111.457 163.991C114.207 164.933 117.128 165.222 120.001 164.834C126.263 164.081 132.425 162.614 138.374 160.459C144.457 158.429 150.388 155.885 156.347 153.311C168.137 148.088 179.423 141.722 190.052 134.297C192.605 132.473 194.964 130.374 197.089 128.036C197.561 127.488 197.986 126.9 198.361 126.277C198.655 125.799 198.853 125.264 198.942 124.705C198.954 124.514 198.917 124.323 198.835 124.152C198.752 123.981 198.627 123.836 198.472 123.732C197.949 123.34 197.364 123.044 196.744 122.86C193.686 122.1 190.539 121.792 187.398 121.945C184.121 121.96 180.872 122.16 177.624 122.503Z" fill="#8CC63F"/>
</svg>
