<svg width="614" height="486" viewBox="0 0 614 486" fill="none" xmlns="http://www.w3.org/2000/svg">
<path d="M51.2255 177.33C-14.9583 183.529 2.53255 78.1179 1.0272 9.57018C0.956089 6.33183 0.968815 3.14186 1.06351 0H614V431.688C594.315 458.193 580.495 482.88 546.661 485.827C478.778 491.741 586.503 343.931 528.655 306.809C466.668 267.03 414.485 442.061 360.6 391.252C317.817 350.911 412.797 264.121 360.6 238.129C312.994 214.423 289.913 331.424 242.743 306.809C198.143 283.535 266.07 190.086 217.644 177.33C177.618 166.786 169.711 249.113 129.797 238.129C78.5313 224.021 182.239 106.265 129.797 97.9536C87.3506 91.2263 93.9936 173.324 51.2255 177.33Z" fill="white"/>
</svg>
